<?xml version="1.0" standalone="no"?>
<!DOCTYPE svg PUBLIC "-//W3C//DTD SVG 20010904//EN"
 "http://www.w3.org/TR/2001/REC-SVG-20010904/DTD/svg10.dtd">
<svg version="1.0" xmlns="http://www.w3.org/2000/svg"
 width="130.000000pt" height="130.000000pt" viewBox="0 0 130.000000 130.000000"
 preserveAspectRatio="xMidYMid meet">
<metadata>
Created by potrace 1.11, written by Peter Selinger 2001-2013
</metadata>
<g transform="translate(0.000000,130.000000) scale(0.100000,-0.100000)"
fill="#000000" stroke="none">
<path d="M265 1079 c-49 -12 -92 -52 -105 -98 -5 -20 -10 -68 -10 -107 0 -85
-22 -124 -71 -124 -27 0 -29 -3 -29 -35 0 -32 2 -35 29 -35 20 0 36 -9 50 -26
18 -23 21 -41 21 -128 0 -163 32 -204 169 -213 l81 -6 0 37 0 36 -50 0 c-55 0
-104 20 -114 45 -3 9 -6 53 -6 98 0 99 -13 150 -44 175 -24 18 -24 19 -4 31
31 19 48 74 48 151 0 74 16 123 45 134 9 3 41 6 71 6 l54 0 0 35 0 35 -47 -1
c-27 -1 -66 -5 -88 -10z"/>
<path d="M560 1056 l0 -36 59 0 c92 0 104 -15 111 -137 5 -100 21 -146 56
-160 11 -4 8 -10 -11 -25 -32 -25 -45 -75 -45 -171 0 -81 -16 -129 -45 -141
-9 -3 -41 -6 -71 -6 l-54 0 0 -36 0 -37 78 5 c141 8 172 46 172 212 0 89 3
107 21 130 14 17 30 26 50 26 27 0 29 3 29 35 0 32 -3 35 -28 35 -51 0 -66 30
-72 141 -8 145 -43 185 -172 195 l-78 7 0 -37z"/>
<path d="M1146 864 c-22 -21 -20 -67 2 -87 40 -36 102 -9 102 45 0 49 -69 78
-104 42z"/>
<path d="M1142 558 c-19 -19 -14 -73 8 -93 27 -25 25 -44 -10 -92 l-30 -40 21
-19 c20 -18 21 -18 54 21 42 49 75 116 75 151 0 27 -16 65 -34 76 -17 12 -71
9 -84 -4z"/>
</g>
</svg>
